<svg width="312" height="305" viewBox="0 0 312 305" fill="none" xmlns="http://www.w3.org/2000/svg">
<path d="M157.12 0.112655C79.1034 -2.2524 11.5251 55.8604 1.31514 132.112C-9.8479 215.482 51.5922 290.496 127.192 302.51C221.225 317.454 312.432 231.001 304.242 137.213C298.072 66.5509 236.424 2.51663 157.12 0.112655Z" fill="#F4F7FA"/>
<mask id="mask0_9958_13848" style="mask-type:luminance" maskUnits="userSpaceOnUse" x="25" y="0" width="181" height="143">
<path d="M53.1837 69.1988C62.6663 50.6915 76.7501 28.7048 89.2243 50.8107C101.699 72.9166 136.138 51.8845 147.137 19.7922C157.901 -11.6124 220.035 -10.6338 202.99 59.4729C192.811 101.34 150.797 103.212 129.805 109.192C108.812 115.172 113.194 147.214 85.0067 141.406C60.9294 136.445 41.2686 121.978 28.5573 138.376C15.8462 154.773 46.8957 81.4708 53.1837 69.1988Z" fill="white"/>
</mask>
<g mask="url(#mask0_9958_13848)">
<path d="M147.137 19.7923C136.138 51.8845 105.415 73.0819 89.2245 53.5237C74.9152 36.2376 62.6665 50.6915 53.1839 69.1987C47.5656 80.1638 38.6707 105.957 12.4982 100.945C12.524 101.369 12.4788 101.812 12.3512 102.275C11.6446 118.97 10.3324 135.631 9.46289 152.317C16.8082 150.346 23.0737 145.45 28.5573 138.376C41.2685 121.978 60.9294 136.445 85.0068 141.406C113.194 147.214 108.812 115.172 129.804 109.192C150.797 103.212 192.811 101.34 202.99 59.4729C220.035 -10.6338 157.901 -11.6124 147.137 19.7923Z" fill="url(#paint0_linear_9958_13848)"/>
</g>
<mask id="mask1_9958_13848" style="mask-type:luminance" maskUnits="userSpaceOnUse" x="25" y="0" width="181" height="143">
<path d="M53.1837 69.1988C62.6663 50.6915 76.7501 28.7048 89.2243 50.8107C101.699 72.9166 136.138 51.8845 147.137 19.7922C157.901 -11.6124 220.035 -10.6338 202.99 59.4729C192.811 101.34 150.797 103.212 129.805 109.192C108.812 115.172 113.194 147.214 85.0067 141.406C60.9294 136.445 41.2686 121.978 28.5573 138.376C15.8462 154.773 46.8957 81.4708 53.1837 69.1988Z" fill="white"/>
</mask>
<g mask="url(#mask1_9958_13848)">
<g opacity="0.5">
<path d="M184.339 -9.5957C184.251 58.937 125.185 91.9721 75.6502 107.617C52.9622 114.783 30.151 119.056 11.3192 121.602C11.3011 121.899 11.2837 122.197 11.2656 122.493C30.169 119.944 53.0942 115.659 75.8984 108.458C107.577 98.4548 132.83 84.8661 150.958 68.0693C173.652 47.0426 185.178 20.9128 185.217 -9.59482L184.339 -9.5957Z" fill="#BEB8F2"/>
<path d="M141.095 76.4467L141.036 75.5717C170.203 73.6066 208.559 54.9556 208.943 54.7676L209.33 55.5545C208.944 55.7433 170.433 74.4699 141.095 76.4467Z" fill="#BEB8F2"/>
<path d="M155.832 62.0235C168.297 29.5507 154.368 4.15453 154.226 3.90207L154.991 3.47266C155.136 3.729 169.27 29.4662 156.652 62.3371L155.832 62.0235Z" fill="#BEB8F2"/>
<path d="M39.8926 116.807C78.6811 99.324 77.9458 42.199 77.8921 41.6431L78.7581 41.502C78.8626 42.0426 79.3869 99.9678 40.2539 117.605L39.8926 116.807Z" fill="#BEB8F2"/>
<path d="M57.1709 113.742L57.1832 112.865C84.3381 113.24 107.782 138.034 108.016 138.285L107.373 138.882C107.142 138.634 83.9467 114.111 57.1709 113.742Z" fill="#BEB8F2"/>
<path d="M24.225 145.139C21.603 142.728 16.524 138.058 10.5612 133.734C10.5395 134.079 10.5178 134.423 10.4961 134.767C16.2181 138.969 21.0901 143.448 23.63 145.784C24.7553 146.819 25.2203 147.244 25.4292 147.368L25.8777 146.614C25.7309 146.524 25.0334 145.882 24.225 145.139Z" fill="#BEB8F2"/>
</g>
</g>
<path d="M138.385 97.6056C132.054 90.6525 122.948 91.2951 116.432 92.7905C116.118 93.637 115.72 94.0441 115.215 94.8252C110.655 101.876 110.215 105.854 106.819 113.512C106.088 115.161 105.417 120.65 105.287 122.911L105.112 127.129C105.112 127.129 121.539 141.23 130.559 132.839C139.58 124.449 156.883 135.865 166.796 140.786C172.883 143.807 176.637 143.242 179.052 143.994C204.62 151.952 209.182 162.272 219.088 159.761C230.025 156.99 227.596 143.62 239.334 139.978C252.587 135.865 264.582 150.151 276.253 143.461C278.254 142.314 280.279 141.081 282.132 138.628C286.706 132.573 284.824 125.544 292.272 122.8C307.243 117.286 317.222 102.68 309.093 88.4101C301.069 74.326 273.941 76.8642 245.024 98.3992C222.71 111.373 218.002 109.853 207.348 103.927C199.885 99.7762 182.407 83.587 170.034 91.9031C157.661 100.219 145.623 105.555 138.385 97.6056Z" fill="url(#paint1_linear_9958_13848)"/>
<mask id="mask2_9958_13848" style="mask-type:luminance" maskUnits="userSpaceOnUse" x="104" y="79" width="208" height="67">
<path d="M108.253 95.3043L104.656 126.227C104.656 126.227 121.538 141.23 130.558 132.839C139.579 124.448 156.882 135.865 166.795 140.786C193.692 154.136 203.034 120.621 238.951 134.775C248.504 138.54 265.462 149.181 276.252 143.461C288.545 136.945 282.693 126.328 292.271 122.8C307.242 117.286 317.221 102.68 309.092 88.4101C301.068 74.326 273.94 76.8642 245.023 98.399C222.709 111.374 218.001 109.853 207.347 103.927C199.884 99.7762 182.406 83.5871 170.033 91.903C157.66 100.219 145.622 105.554 138.384 97.6057C127.371 85.5105 108.253 95.3043 108.253 95.3043Z" fill="white"/>
</mask>
<g mask="url(#mask2_9958_13848)">
<g opacity="0.5">
<path d="M108.021 109.302L107.878 109.902C111.191 110.723 114.542 111.508 117.839 112.233C142.251 117.6 166.308 120.314 189.343 120.298C208.86 120.285 227.918 118.318 245.988 114.45C260.519 111.339 274.492 106.989 287.519 101.518C296.677 97.6728 305.277 93.3181 313.079 88.5746C314.439 87.7482 315.788 86.8226 317.094 85.9275C318.833 84.735 320.63 83.5017 322.467 82.494L322.216 81.9473C320.355 82.9689 318.544 84.2103 316.794 85.411C315.495 86.3017 314.152 87.2226 312.806 88.0407C305.029 92.7693 296.455 97.1111 287.323 100.946C274.328 106.402 260.387 110.743 245.89 113.846C227.858 117.706 208.838 119.67 189.358 119.683C166.362 119.698 142.343 116.988 117.969 111.629C114.676 110.905 111.33 110.122 108.021 109.302Z" fill="#FCFDFE"/>
<path d="M223.752 117.581L223.787 118.195C248.385 115.845 283.337 140.259 283.687 140.506L284.012 139.989C283.66 139.741 248.547 115.212 223.752 117.581Z" fill="#FCFDFE"/>
<path d="M154.566 117.696L154.535 118.312C171.373 118.809 193.868 93.167 194.093 92.908L193.678 92.4941C193.454 92.7511 171.142 118.185 154.566 117.696Z" fill="#FCFDFE"/>
<path d="M145.059 116.529L144.927 117.132C155.639 119.539 168.895 128.999 182.252 143.768C182.924 144.51 182.924 144.51 183.03 144.536L183.168 143.934L183.099 144.235L183.267 143.982C183.217 143.938 182.963 143.658 182.67 143.332C169.236 128.479 155.88 118.96 145.059 116.529Z" fill="#FCFDFE"/>
<path d="M114.089 110.709L114.122 111.322C126.226 110.219 136.68 94.2255 136.784 94.0643L136.315 93.7227C136.212 93.8816 125.916 109.63 114.089 110.709Z" fill="#FCFDFE"/>
<path d="M107.66 110.16C115.731 115.845 122.481 124.247 128.296 135.845L128.803 135.542C122.943 123.855 116.133 115.383 107.984 109.643L107.66 110.16Z" fill="#FCFDFE"/>
<path d="M279.604 104.033L279.672 104.642C293.301 102.52 307.992 103.667 312.82 104.044C313.989 104.135 314.4 104.166 314.546 104.15L314.502 103.537C314.391 103.548 313.723 103.496 312.877 103.429C308.034 103.051 293.295 101.901 279.604 104.033Z" fill="#FCFDFE"/>
<path d="M257.832 110.989L258.065 111.545C269.833 105.619 279.029 79.5755 279.415 78.4696L278.877 78.2676C278.784 78.5358 269.38 105.174 257.832 110.989Z" fill="#FCFDFE"/>
</g>
</g>
<path d="M295.151 26.2785C285.072 -8.91081 230.921 9.67758 209.3 45.3576C203.028 55.7088 197.835 60.9526 193.187 63.0734C179.137 68.4385 169.407 75.0583 163.119 80.1109C144.879 94.7672 141.518 107.554 124.41 116.987C113.603 122.946 102.948 124.459 95.7517 124.826C95.9208 126.394 95.8939 128.023 95.6249 129.709C95.1452 132.718 94.6655 135.727 94.1855 138.736C100.406 142.621 106.989 145.133 111.343 136.57C118.104 123.271 141.648 127.86 149.194 133.48C158.534 140.436 180.601 156.157 191.358 135.769C200.314 118.796 202.827 105.938 225.09 109.295C247.354 112.651 263.581 102.809 266.413 81.3887C269.394 58.8468 300.935 46.4739 295.151 26.2785Z" fill="url(#paint2_linear_9958_13848)"/>
<mask id="mask3_9958_13848" style="mask-type:luminance" maskUnits="userSpaceOnUse" x="89" y="7" width="207" height="139">
<path d="M89.2256 135.975C95.1844 140.111 106.479 146.135 111.343 136.57C118.104 123.271 141.648 127.859 149.194 133.48C158.534 140.435 180.601 156.157 191.358 135.769C200.314 118.796 202.827 105.938 225.091 109.295C247.354 112.651 263.581 102.809 266.413 81.3885C269.394 58.8468 300.935 46.4741 295.151 26.2786C285.072 -8.91087 230.922 9.67753 209.3 45.3576C187.679 81.0377 89.2256 135.975 89.2256 135.975Z" fill="white"/>
</mask>
<g mask="url(#mask3_9958_13848)">
<g opacity="0.5">
<path d="M203.326 86.8965C186.125 95.4046 168.008 101.893 149.456 106.098C148.21 106.75 146.956 107.385 145.693 108.005C166.275 103.713 186.372 96.6255 205.332 87.0794C204.664 87.0061 203.995 86.945 203.326 86.8965Z" fill="#FCFDFE"/>
<path d="M293.049 11.6562C272.436 40 245.615 63.4355 215.435 80.488C215.641 80.6972 215.854 80.9013 216.058 81.1125C216.092 81.1481 216.143 81.2001 216.203 81.2608C246.389 64.1502 273.217 40.676 293.851 12.3042L293.049 11.6562Z" fill="#FCFDFE"/>
<path d="M144.653 108.516C144.153 108.758 143.65 108.995 143.146 109.233C170.664 115.933 187.247 145.187 187.414 145.488L188.289 144.938C188.122 144.638 171.836 115.892 144.653 108.516Z" fill="#FCFDFE"/>
<path d="M157.336 49.5378C157.694 48.2962 157.881 47.5775 157.896 47.5167L156.918 47.2461C156.902 47.3095 156.696 48.0982 156.307 49.4447C156.65 49.4736 156.993 49.5036 157.336 49.5378Z" fill="#FCFDFE"/>
<path d="M217.236 82.35C217.522 82.661 217.838 83.0139 218.166 83.3972C239.588 83.1077 263.371 100.169 263.636 100.361L264.215 99.477C263.943 99.2793 239.242 81.5585 217.236 82.35Z" fill="#FCFDFE"/>
<path d="M250.591 56.5703L251.331 57.2957C269.557 36.5331 269.027 -1.55649 269.019 -1.93945L268.005 -1.90797C268.014 -1.52988 268.534 36.1315 250.591 56.5703Z" fill="#FCFDFE"/>
</g>
</g>
<path d="M275.238 258.422L23.337 281.122C19.5768 281.428 14.1816 276.464 14.1816 272.698V82.3098C14.1816 78.7852 17.018 75.9144 20.5484 75.8656L274.624 72.3581C278.224 72.3084 285.029 74.9579 285.029 78.5522L281.169 251.999C281.169 255.355 278.589 258.149 275.238 258.422Z" fill="url(#paint3_linear_9958_13848)"/>
<path d="M280.356 260.184L26.28 280.883C22.5198 281.189 19.2988 278.225 19.2988 274.459V84.0714C19.2988 80.5468 22.1352 77.676 25.6656 77.6273L279.741 74.1198C283.341 74.0701 286.286 76.9697 286.286 80.5639V253.76C286.287 257.116 283.707 259.911 280.356 260.184Z" fill="url(#paint4_linear_9958_13848)"/>
<path d="M48.7294 273.154L263.939 256.047C267.374 255.774 270.023 252.911 270.023 249.47V85.1484C270.023 81.465 267.002 78.495 263.313 78.5516L48.1034 81.8499C44.4933 81.9052 41.5957 84.8424 41.5957 88.4467V266.578C41.5957 270.428 44.8847 273.46 48.7294 273.154Z" fill="url(#paint5_linear_9958_13848)"/>
<path d="M279.011 172.803C277.768 172.803 276.761 171.797 276.761 170.557V153.901C276.761 152.66 277.768 151.654 279.011 151.654C280.254 151.654 281.262 152.66 281.262 153.901V170.557C281.262 171.797 280.254 172.803 279.011 172.803Z" fill="url(#paint6_linear_9958_13848)"/>
<path opacity="0.9" d="M232.03 219.438C212.43 202.371 196.717 209.047 175.984 191.707C150.248 170.182 163.062 150.334 140.407 131.381C112.076 107.679 77.8423 126.904 56.5818 103.163C51.0176 96.9503 47.9199 89.5522 46.2937 82.1367C43.5729 82.9566 41.5957 85.473 41.5957 88.4487V266.58C41.5957 270.43 44.8847 273.462 48.7294 273.156L254.809 256.775C251.041 244.01 244.33 230.148 232.03 219.438Z" fill="white"/>
<g opacity="0.3">
<path d="M240.029 165.426L72.6068 171.718C69.7676 171.825 67.4609 169.774 67.4609 167.139V155.956C67.4609 153.336 69.7582 151.148 72.5857 151.066L239.37 146.262C241.806 146.191 243.845 148.096 243.931 150.518L244.295 160.851C244.381 163.285 242.474 165.334 240.029 165.426Z" fill="#97A6B7"/>
<path d="M79.3564 175.675L94.5359 231.084C95.5029 234.615 98.9155 236.912 102.802 236.656L215.561 229.213C219.069 228.981 222.045 226.399 222.789 222.955L234.312 169.574L79.3564 175.675ZM122.367 226.309C122.391 228.539 120.522 230.469 118.19 230.618L114.154 230.875C111.809 231.025 109.888 229.327 109.869 227.085L109.507 183.783C109.489 181.58 111.361 179.718 113.683 179.621L117.679 179.455C119.988 179.358 121.877 181.055 121.901 183.245L122.367 226.309ZM144.604 224.929C144.638 227.137 142.813 229.046 140.525 229.192L136.568 229.445C134.268 229.591 132.376 227.91 132.347 225.69L131.799 182.815C131.771 180.635 133.599 178.791 135.877 178.696L139.797 178.533C142.062 178.439 143.923 180.119 143.956 182.288L144.604 224.929ZM166.417 223.575C166.46 225.761 164.677 227.65 162.433 227.794L158.551 228.041C156.295 228.185 154.431 226.519 154.393 224.321L153.666 181.867C153.629 179.707 155.415 177.882 157.65 177.789L161.495 177.629C163.718 177.536 165.552 179.201 165.593 181.349L166.417 223.575ZM187.817 222.246C187.868 224.411 186.127 226.281 183.925 226.422L180.117 226.665C177.903 226.806 176.067 225.155 176.02 222.979L175.12 180.936C175.075 178.797 176.819 176.991 179.012 176.899L182.785 176.742C184.967 176.651 186.774 178.301 186.824 180.428L187.817 222.246ZM208.815 220.943C208.874 223.087 207.174 224.938 205.013 225.076L201.276 225.314C199.104 225.453 197.294 223.817 197.239 221.661L196.174 180.023C196.119 177.904 197.824 176.115 199.976 176.026L203.679 175.871C205.82 175.782 207.601 177.417 207.66 179.524L208.815 220.943Z" fill="#97A6B7"/>
<path d="M147.599 96.3249C146.757 95.4302 145.049 95.5636 143.783 96.6249L91.0538 140.8C89.7015 141.933 89.3192 143.596 90.2017 144.514C91.0837 145.431 92.8938 145.252 94.2425 144.117L146.836 99.8676C148.1 98.8047 148.441 97.2192 147.599 96.3249Z" fill="#97A6B7"/>
<path d="M168.389 96.1187C169.191 95.2227 170.887 95.3459 172.175 96.3924L223.362 137.959C224.614 138.976 225.013 140.534 224.253 141.441C223.492 142.349 221.857 142.26 220.601 141.243L169.275 99.6406C167.982 98.5932 167.586 97.0156 168.389 96.1187Z" fill="#97A6B7"/>
</g>
<path d="M204.009 169.316C201.743 193.761 180.052 213.071 155.486 212.446C130.835 211.818 112.638 191.368 114.917 166.772C117.197 142.176 139.079 122.87 163.715 123.65C188.268 124.427 206.274 144.871 204.009 169.316Z" fill="url(#paint7_linear_9958_13848)"/>
<path d="M160.042 196.139C144.524 196.139 131.898 183.535 131.898 168.044C131.898 152.552 144.524 139.949 160.042 139.949C175.561 139.949 188.186 152.552 188.186 168.044C188.186 183.535 175.561 196.139 160.042 196.139ZM160.042 150.283C150.232 150.283 142.251 158.251 142.251 168.044C142.251 177.837 150.232 185.805 160.042 185.805C169.853 185.805 177.834 177.837 177.834 168.044C177.834 158.25 169.853 150.283 160.042 150.283Z" fill="white"/>
<path d="M147.024 187.453C145.704 187.453 144.384 186.953 143.375 185.951C141.347 183.939 141.338 180.667 143.353 178.644L171.449 150.431C173.465 148.406 176.742 148.397 178.769 150.409C180.797 152.421 180.806 155.692 178.791 157.716L150.695 185.929C149.683 186.945 148.353 187.453 147.024 187.453Z" fill="white"/>
<g opacity="0.2">
<path d="M155.787 200.671C152.559 194.969 159.09 190.279 159.356 178.91C159.761 161.646 145.102 155.386 147.066 140.823C147.612 136.773 149.628 130.717 157.192 123.914C135.327 126.364 116.994 144.373 114.917 166.772C112.638 191.368 130.835 211.818 155.486 212.446C163.889 212.66 171.956 210.54 179.025 206.68C169.825 207.299 159.202 206.704 155.787 200.671Z" fill="url(#paint8_linear_9958_13848)"/>
</g>
<path d="M241.178 268.59C216.53 268.331 215.243 270.133 215.058 270.96C214.208 274.758 230.74 284.104 248.302 285.657C258.688 286.575 267.257 284.531 284.395 280.442C295.822 277.715 301.536 276.352 301.492 274.753C301.366 270.23 259.539 268.783 241.178 268.59Z" fill="#D8DEE8"/>
<path d="M250.602 272.48C248.356 272.934 242.843 265.584 244.393 259.522C246.096 252.855 254.822 253.692 257.568 246.422C259.81 240.485 254.871 237.839 256.468 229.738C257.553 224.239 261.343 218.553 266.553 215.65C273.365 211.854 277.912 215.43 282.336 211.451C287.543 206.769 284.963 198.473 286.974 198.088C289.898 197.529 299.469 214.269 293.976 222.325C289.358 229.097 278.098 223.862 272.405 231.415C267.617 237.766 273.806 243.821 268.489 251.313C264.112 257.482 257.534 255.903 253.679 263.095C251.047 268.004 252.219 272.153 250.602 272.48Z" fill="url(#paint9_linear_9958_13848)"/>
<mask id="mask4_9958_13848" style="mask-type:luminance" maskUnits="userSpaceOnUse" x="244" y="198" width="52" height="75">
<path d="M250.602 272.482C248.356 272.936 242.843 265.586 244.393 259.524C246.096 252.856 254.822 253.694 257.568 246.423C259.81 240.487 254.871 237.841 256.468 229.74C257.553 224.241 261.343 218.555 266.553 215.652C273.365 211.856 277.912 215.432 282.336 211.453C287.543 206.771 284.963 198.474 286.974 198.09C289.898 197.531 299.469 214.271 293.976 222.327C289.358 229.099 278.098 223.864 272.405 231.417C267.617 237.768 273.806 243.822 268.489 251.315C264.112 257.484 257.534 255.905 253.679 263.097C251.047 268.006 252.219 272.154 250.602 272.482Z" fill="white"/>
</mask>
<g mask="url(#mask4_9958_13848)">
<path opacity="0.5" d="M251.651 263.642L251.52 263.502C258.067 257.376 262.15 250.595 263.657 243.348C264.505 239.272 264.387 235.903 264.282 232.931C264.146 229.051 264.039 225.986 266.47 223.726C268.871 221.495 271.966 221.602 275.244 221.714C278.824 221.838 282.525 221.965 285.659 219.044C288.772 216.142 289.401 211.95 289.67 210.16C290.69 203.368 287.558 197.951 286.164 195.937L286.323 195.828C287.73 197.861 290.89 203.329 289.861 210.188C289.589 211.998 288.952 216.237 285.791 219.185C282.599 222.16 278.856 222.031 275.237 221.907C272.001 221.795 268.944 221.69 266.602 223.867C264.235 226.067 264.335 228.943 264.475 232.924C264.58 235.907 264.698 239.289 263.846 243.387C262.331 250.673 258.228 257.488 251.651 263.642Z" fill="white"/>
</g>
<mask id="mask5_9958_13848" style="mask-type:luminance" maskUnits="userSpaceOnUse" x="244" y="198" width="52" height="75">
<path d="M250.602 272.482C248.356 272.936 242.843 265.586 244.393 259.524C246.096 252.856 254.822 253.694 257.568 246.423C259.81 240.487 254.871 237.841 256.468 229.74C257.553 224.241 261.343 218.555 266.553 215.652C273.365 211.856 277.912 215.432 282.336 211.453C287.543 206.771 284.963 198.474 286.974 198.09C289.898 197.531 299.469 214.271 293.976 222.327C289.358 229.099 278.098 223.864 272.405 231.417C267.617 237.768 273.806 243.822 268.489 251.315C264.112 257.484 257.534 255.905 253.679 263.097C251.047 268.006 252.219 272.154 250.602 272.482Z" fill="white"/>
</mask>
<g mask="url(#mask5_9958_13848)">
<path opacity="0.5" d="M285.55 220.851C285.026 220.682 284.599 220.413 284.336 220.005C283.754 219.101 284.301 218.012 284.934 216.751C285.606 215.412 286.369 213.893 286.194 212.055C285.952 209.519 283.96 207.073 280.271 204.782L280.373 204.619C284.115 206.943 286.138 209.438 286.385 212.037C286.566 213.93 285.757 215.542 285.106 216.837C284.474 218.096 283.975 219.09 284.498 219.901C285.512 221.476 289.302 220.812 291.123 220.494C295.332 219.757 299.305 217.882 302.931 214.922L303.053 215.071C299.401 218.052 295.399 219.94 291.157 220.683C289.746 220.93 287.182 221.379 285.55 220.851Z" fill="white"/>
</g>
<mask id="mask6_9958_13848" style="mask-type:luminance" maskUnits="userSpaceOnUse" x="244" y="198" width="52" height="75">
<path d="M250.602 272.482C248.356 272.936 242.843 265.586 244.393 259.524C246.096 252.856 254.822 253.694 257.568 246.423C259.81 240.487 254.871 237.841 256.468 229.74C257.553 224.241 261.343 218.555 266.553 215.652C273.365 211.856 277.912 215.432 282.336 211.453C287.543 206.771 284.963 198.474 286.974 198.09C289.898 197.531 299.469 214.271 293.976 222.327C289.358 229.099 278.098 223.864 272.405 231.417C267.617 237.768 273.806 243.822 268.489 251.315C264.112 257.484 257.534 255.905 253.679 263.097C251.047 268.006 252.219 272.154 250.602 272.482Z" fill="white"/>
</mask>
<g mask="url(#mask6_9958_13848)">
<path opacity="0.5" d="M264.298 231.326L264.253 231.271C263.18 229.964 262.568 228.582 262.433 227.165C262.158 224.284 263.913 221.879 265.461 219.757C266.891 217.797 268.127 216.104 267.538 214.461C267.205 213.533 266.318 212.774 264.903 212.208L264.975 212.029C266.443 212.617 267.367 213.414 267.719 214.396C268.342 216.135 267.079 217.866 265.616 219.871C264.089 221.965 262.357 224.338 262.625 227.147C262.754 228.506 263.337 229.834 264.357 231.095C266.212 230.362 268.133 229.98 270.068 229.96C276.102 229.897 280.479 233.425 282.081 234.945L281.948 235.084C280.364 233.581 276.034 230.09 270.07 230.152C268.136 230.172 266.216 230.558 264.363 231.3L264.298 231.326Z" fill="white"/>
</g>
<mask id="mask7_9958_13848" style="mask-type:luminance" maskUnits="userSpaceOnUse" x="244" y="198" width="52" height="75">
<path d="M250.602 272.482C248.356 272.936 242.843 265.586 244.393 259.524C246.096 252.856 254.822 253.694 257.568 246.423C259.81 240.487 254.871 237.841 256.468 229.74C257.553 224.241 261.343 218.555 266.553 215.652C273.365 211.856 277.912 215.432 282.336 211.453C287.543 206.771 284.963 198.474 286.974 198.09C289.898 197.531 299.469 214.271 293.976 222.327C289.358 229.099 278.098 223.864 272.405 231.417C267.617 237.768 273.806 243.822 268.489 251.315C264.112 257.484 257.534 255.905 253.679 263.097C251.047 268.006 252.219 272.154 250.602 272.482Z" fill="white"/>
</mask>
<g mask="url(#mask7_9958_13848)">
<path opacity="0.5" d="M261.541 250.368L261.508 250.335C261.342 250.171 244.969 233.946 244.226 233.436L244.335 233.277C245.083 233.79 260.565 249.13 261.61 250.165L286.971 247.028L286.995 247.218L261.541 250.368Z" fill="white"/>
</g>
<path d="M250.658 277.704C249.26 277.208 247.256 276.339 245.146 274.802C242.928 273.187 240.807 271.642 239.995 269.049C239.058 266.055 240.924 265.114 239.986 262.371C238.92 259.253 236.09 259.571 234.986 256.332C234.237 254.133 234.879 252.046 235.447 250.201C236.128 247.988 237.677 244.808 238.689 245.013C239.889 245.257 238.278 249.842 241.008 253.004C243.075 255.398 245.477 254.481 247.521 257.277C247.798 257.655 249.341 259.765 249.005 262.285C248.592 265.375 246.123 266.195 245.536 268.755C245.117 270.582 245.802 273.393 250.658 277.704Z" fill="url(#paint10_linear_9958_13848)"/>
<mask id="mask8_9958_13848" style="mask-type:luminance" maskUnits="userSpaceOnUse" x="234" y="245" width="17" height="33">
<path d="M250.657 277.704C249.259 277.208 247.255 276.339 245.145 274.802C242.927 273.187 240.806 271.642 239.994 269.049C239.057 266.055 240.923 265.114 239.985 262.371C238.919 259.253 236.089 259.571 234.985 256.332C234.236 254.133 234.878 252.046 235.446 250.201C236.127 247.988 237.676 244.808 238.688 245.013C239.888 245.257 238.277 249.842 241.007 253.004C243.074 255.398 245.476 254.481 247.52 257.277C247.797 257.655 249.34 259.765 249.004 262.285C248.591 265.375 246.122 266.195 245.535 268.755C245.116 270.582 245.801 273.393 250.657 277.704Z" fill="white"/>
</mask>
<g mask="url(#mask8_9958_13848)">
<path opacity="0.3" d="M251.34 278.791C250.899 278.37 250.312 277.869 249.69 277.339C246.961 275.013 243.223 271.827 243.633 268.812C243.849 267.224 244.121 265.988 244.339 264.996C244.761 263.079 245.015 261.922 244.425 260.421C243.725 258.642 242.451 257.886 241.103 257.086C239.891 256.366 238.637 255.622 237.798 254.078C236.437 251.572 236.823 248.051 238.946 243.613L239.12 243.696C237.025 248.076 236.637 251.538 237.967 253.986C238.781 255.484 240.012 256.215 241.202 256.921C242.518 257.702 243.88 258.51 244.604 260.351C245.216 261.907 244.957 263.085 244.527 265.037C244.31 266.026 244.039 267.258 243.824 268.838C243.428 271.749 247.12 274.895 249.815 277.193C250.439 277.725 251.029 278.228 251.473 278.652L251.34 278.791Z" fill="white"/>
</g>
<mask id="mask9_9958_13848" style="mask-type:luminance" maskUnits="userSpaceOnUse" x="234" y="245" width="17" height="33">
<path d="M250.657 277.704C249.259 277.208 247.255 276.339 245.145 274.802C242.927 273.187 240.806 271.642 239.994 269.049C239.057 266.055 240.923 265.114 239.985 262.371C238.919 259.253 236.089 259.571 234.985 256.332C234.236 254.133 234.878 252.046 235.446 250.201C236.127 247.988 237.676 244.808 238.688 245.013C239.888 245.257 238.277 249.842 241.007 253.004C243.074 255.398 245.476 254.481 247.52 257.277C247.797 257.655 249.34 259.765 249.004 262.285C248.591 265.375 246.122 266.195 245.535 268.755C245.116 270.582 245.801 273.393 250.657 277.704Z" fill="white"/>
</mask>
<g mask="url(#mask9_9958_13848)">
<path opacity="0.3" d="M238.985 256.807C238.156 256.539 237.25 256.09 236.413 255.342C233.378 252.629 234.074 248.418 234.105 248.24L234.294 248.273C234.264 248.447 233.585 252.556 236.542 255.199C238.073 256.567 239.844 256.909 240.902 256.979C240.44 256.493 239.353 255.128 239.581 253.26C239.772 251.703 240.759 250.727 241.174 250.379L241.298 250.527C240.9 250.86 239.954 251.794 239.772 253.283C239.512 255.411 241.039 256.858 241.214 257.016L241.409 257.192L241.147 257.184C240.619 257.166 239.844 257.084 238.985 256.807Z" fill="white"/>
</g>
<mask id="mask10_9958_13848" style="mask-type:luminance" maskUnits="userSpaceOnUse" x="234" y="245" width="17" height="33">
<path d="M250.657 277.704C249.259 277.208 247.255 276.339 245.145 274.802C242.927 273.187 240.806 271.642 239.994 269.049C239.057 266.055 240.923 265.114 239.985 262.371C238.919 259.253 236.089 259.571 234.985 256.332C234.236 254.133 234.878 252.046 235.446 250.201C236.127 247.988 237.676 244.808 238.688 245.013C239.888 245.257 238.277 249.842 241.007 253.004C243.074 255.398 245.476 254.481 247.52 257.277C247.797 257.655 249.34 259.765 249.004 262.285C248.591 265.375 246.122 266.195 245.535 268.755C245.116 270.582 245.801 273.393 250.657 277.704Z" fill="white"/>
</mask>
<g mask="url(#mask10_9958_13848)">
<path opacity="0.3" d="M244.564 264.282L244.53 264.165C244.242 263.173 243.611 261.765 242.236 260.691C239.132 258.264 235.121 259.832 234.952 259.9L234.88 259.721C235.053 259.652 239.165 258.045 242.355 260.539C243.716 261.603 244.369 262.983 244.68 263.994C245.31 263.616 246.922 262.463 247.44 260.315C248.159 257.336 246.178 255.11 245.949 254.866L246.09 254.734C246.326 254.986 248.37 257.284 247.628 260.36C247.059 262.715 245.22 263.911 244.67 264.222L244.564 264.282Z" fill="white"/>
</g>
<mask id="mask11_9958_13848" style="mask-type:luminance" maskUnits="userSpaceOnUse" x="234" y="245" width="17" height="33">
<path d="M250.657 277.704C249.259 277.208 247.255 276.339 245.145 274.802C242.927 273.187 240.806 271.642 239.994 269.049C239.057 266.055 240.923 265.114 239.985 262.371C238.919 259.253 236.089 259.571 234.985 256.332C234.236 254.133 234.878 252.046 235.446 250.201C236.127 247.988 237.676 244.808 238.688 245.013C239.888 245.257 238.277 249.842 241.007 253.004C243.074 255.398 245.476 254.481 247.52 257.277C247.797 257.655 249.34 259.765 249.004 262.285C248.591 265.375 246.122 266.195 245.535 268.755C245.116 270.582 245.801 273.393 250.657 277.704Z" fill="white"/>
</mask>
<g mask="url(#mask11_9958_13848)">
<path opacity="0.3" d="M243.684 270.228L243.632 270.084C243.184 268.85 242.453 267.717 241.519 266.805C240.191 265.511 238.73 264.911 237.736 264.635L237.788 264.45C238.803 264.731 240.297 265.345 241.653 266.668C242.572 267.564 243.298 268.671 243.759 269.875L249.512 263.992L249.65 264.126L243.684 270.228Z" fill="white"/>
</g>
<path d="M247.028 202.91C245.591 203.578 248.078 207.419 247.007 213.72C245.303 223.738 236.96 226.228 237.673 234.029C238.057 238.231 239.888 241.133 239.888 241.133C240.49 242.087 240.944 242.532 243.033 245.353C243.227 245.615 245.1 248.145 245.557 248.845C248.654 253.589 242.35 260.539 244.264 267.332C245.586 272.023 249.061 275.211 251.911 277.218C246.565 268.83 246.625 263.451 247.804 260.024C249.438 255.27 253.146 254.49 255.123 248.505C256.504 244.325 255.215 243.13 255.248 235.445C255.3 223.561 258.4 222.273 256.827 215.75C254.98 208.093 248.822 202.075 247.028 202.91Z" fill="url(#paint11_linear_9958_13848)"/>
<mask id="mask12_9958_13848" style="mask-type:luminance" maskUnits="userSpaceOnUse" x="237" y="202" width="21" height="76">
<path d="M247.028 202.91C245.591 203.578 248.078 207.419 247.007 213.72C245.303 223.738 236.96 226.228 237.673 234.029C238.057 238.231 239.888 241.133 239.888 241.133C240.49 242.087 240.944 242.532 243.033 245.353C243.227 245.615 245.1 248.145 245.557 248.845C248.654 253.589 242.35 260.539 244.264 267.332C245.586 272.023 249.061 275.211 251.911 277.218C246.565 268.83 246.625 263.451 247.804 260.024C249.438 255.27 253.146 254.49 255.123 248.505C256.504 244.325 255.215 243.13 255.248 235.445C255.3 223.561 258.4 222.273 256.827 215.75C254.98 208.093 248.822 202.075 247.028 202.91Z" fill="white"/>
</mask>
<g mask="url(#mask12_9958_13848)">
<path opacity="0.5" d="M246.44 270.733C245.341 266.875 245.217 263.166 246.073 259.707C246.73 257.051 247.717 255.51 248.671 254.02C249.595 252.575 250.469 251.211 250.892 248.97C251.495 245.771 250.609 243.926 249.582 241.788C248.709 239.973 247.721 237.915 247.562 234.671C247.344 230.248 248.849 227.485 250.304 224.813C251.667 222.309 252.954 219.944 252.915 216.325C252.862 211.336 250.185 206.253 244.959 201.218L245.093 201.08C250.357 206.152 253.054 211.281 253.108 216.323C253.147 219.992 251.788 222.49 250.473 224.905C249.031 227.554 247.54 230.292 247.754 234.662C247.911 237.867 248.891 239.906 249.756 241.705C250.797 243.873 251.696 245.745 251.081 249.006C250.651 251.284 249.768 252.663 248.833 254.123C247.888 255.6 246.91 257.128 246.26 259.754C245.412 263.179 245.535 266.855 246.626 270.681L246.44 270.733Z" fill="white"/>
</g>
<mask id="mask13_9958_13848" style="mask-type:luminance" maskUnits="userSpaceOnUse" x="237" y="202" width="21" height="76">
<path d="M247.028 202.91C245.591 203.578 248.078 207.419 247.007 213.72C245.303 223.738 236.96 226.228 237.673 234.029C238.057 238.231 239.888 241.133 239.888 241.133C240.49 242.087 240.944 242.532 243.033 245.353C243.227 245.615 245.1 248.145 245.557 248.845C248.654 253.589 242.35 260.539 244.264 267.332C245.586 272.023 249.061 275.211 251.911 277.218C246.565 268.83 246.625 263.451 247.804 260.024C249.438 255.27 253.146 254.49 255.123 248.505C256.504 244.325 255.215 243.13 255.248 235.445C255.3 223.561 258.4 222.273 256.827 215.75C254.98 208.093 248.822 202.075 247.028 202.91Z" fill="white"/>
</mask>
<g mask="url(#mask13_9958_13848)">
<path opacity="0.5" d="M251.697 222.335L251.701 222.179C251.736 220.964 251.553 217.848 249.124 215.174C246.927 212.756 244.153 212.149 243.062 212L243.089 211.81C244.2 211.961 247.027 212.58 249.267 215.045C251.644 217.662 251.91 220.693 251.897 222.027C253.428 221.278 254.741 220.177 255.702 218.837C257.94 215.718 257.657 212.275 257.432 210.94L257.621 210.908C257.851 212.267 258.138 215.771 255.859 218.949C254.849 220.356 253.459 221.504 251.839 222.268L251.697 222.335Z" fill="white"/>
</g>
<mask id="mask14_9958_13848" style="mask-type:luminance" maskUnits="userSpaceOnUse" x="237" y="202" width="21" height="76">
<path d="M247.028 202.91C245.591 203.578 248.078 207.419 247.007 213.72C245.303 223.738 236.96 226.228 237.673 234.029C238.057 238.231 239.888 241.133 239.888 241.133C240.49 242.087 240.944 242.532 243.033 245.353C243.227 245.615 245.1 248.145 245.557 248.845C248.654 253.589 242.35 260.539 244.264 267.332C245.586 272.023 249.061 275.211 251.911 277.218C246.565 268.83 246.625 263.451 247.804 260.024C249.438 255.27 253.146 254.49 255.123 248.505C256.504 244.325 255.215 243.13 255.248 235.445C255.3 223.561 258.4 222.273 256.827 215.75C254.98 208.093 248.822 202.075 247.028 202.91Z" fill="white"/>
</mask>
<g mask="url(#mask14_9958_13848)">
<path opacity="0.5" d="M249.148 240.642L249.05 240.597C247.539 239.92 246.372 238.974 245.58 237.786C244.656 236.398 244.53 235.115 244.397 233.756C244.316 232.928 244.232 232.071 243.961 231.144C243.273 228.789 241.541 226.656 238.812 224.806L238.921 224.646C241.687 226.523 243.445 228.691 244.146 231.09C244.421 232.035 244.506 232.9 244.588 233.737C244.719 235.072 244.843 236.332 245.74 237.679C246.495 238.811 247.601 239.718 249.03 240.377C249.573 238.697 250.267 237.06 251.094 235.51C252.626 232.639 254.622 230.035 257.027 227.771L257.159 227.911C254.769 230.161 252.786 232.748 251.264 235.6C250.425 237.172 249.724 238.833 249.181 240.539L249.148 240.642Z" fill="white"/>
</g>
<mask id="mask15_9958_13848" style="mask-type:luminance" maskUnits="userSpaceOnUse" x="237" y="202" width="21" height="76">
<path d="M247.028 202.91C245.591 203.578 248.078 207.419 247.007 213.72C245.303 223.738 236.96 226.228 237.673 234.029C238.057 238.231 239.888 241.133 239.888 241.133C240.49 242.087 240.944 242.532 243.033 245.353C243.227 245.615 245.1 248.145 245.557 248.845C248.654 253.589 242.35 260.539 244.264 267.332C245.586 272.023 249.061 275.211 251.911 277.218C246.565 268.83 246.625 263.451 247.804 260.024C249.438 255.27 253.146 254.49 255.123 248.505C256.504 244.325 255.215 243.13 255.248 235.445C255.3 223.561 258.4 222.273 256.827 215.75C254.98 208.093 248.822 202.075 247.028 202.91Z" fill="white"/>
</mask>
<g mask="url(#mask15_9958_13848)">
<path opacity="0.5" d="M250.32 251.277L250.286 251.112C250.128 250.338 249.412 247.686 246.858 246.044C243.524 243.9 239.923 245.272 239.523 245.435L239.45 245.257C239.859 245.09 243.545 243.686 246.962 245.882C249.422 247.463 250.217 249.957 250.439 250.909C251.746 249.71 252.875 248.346 253.798 246.851C255.301 244.415 256.258 241.593 256.565 238.688L256.756 238.708C256.446 241.641 255.48 244.492 253.962 246.951C253.001 248.509 251.818 249.926 250.445 251.164L250.32 251.277Z" fill="white"/>
</g>
<path d="M252.513 278.086C250.903 277.245 247.975 275.426 246.322 272.247C243.362 266.554 246.269 259.917 250.17 256.753C255.039 252.804 258.963 256.288 263.559 252.568C268.779 248.344 265.393 242.494 270.82 238.114C274.504 235.14 279.315 235.211 283.568 235.274C288.668 235.35 296.554 236.678 297.124 238.969C297.8 241.686 287.036 241.102 283.344 248.909C280.549 254.82 284.721 259.384 281.097 265.498C280.606 266.326 277.872 270.94 272.489 271.793C265.45 272.908 260.443 266.554 256.141 268.414C254.395 269.169 252.529 271.379 252.513 278.086Z" fill="url(#paint12_linear_9958_13848)"/>
<mask id="mask16_9958_13848" style="mask-type:luminance" maskUnits="userSpaceOnUse" x="245" y="235" width="53" height="44">
<path d="M252.514 278.084C250.904 277.243 247.976 275.424 246.323 272.245C243.363 266.552 246.27 259.915 250.171 256.751C255.04 252.802 258.964 256.286 263.56 252.566C268.78 248.342 265.394 242.492 270.821 238.112C274.505 235.139 279.316 235.21 283.569 235.272C288.669 235.348 296.554 236.676 297.125 238.967C297.801 241.684 287.037 241.1 283.345 248.907C280.55 254.818 284.722 259.381 281.098 265.496C280.607 266.324 277.873 270.938 272.49 271.791C265.451 272.906 260.444 266.552 256.142 268.412C254.396 269.167 252.53 271.377 252.514 278.084Z" fill="white"/>
</mask>
<g mask="url(#mask16_9958_13848)">
<path opacity="0.74" d="M251.933 280.064C248.641 272.772 248.133 267.521 250.424 264.455C252.252 262.01 255.076 261.813 258.346 261.584C261.659 261.353 265.414 261.09 268.822 258.303C271.935 255.758 272.706 252.85 273.522 249.773C274.263 246.98 275.03 244.092 277.713 241.542C282.01 237.46 289.223 236.252 299.151 237.951L299.119 238.14C289.253 236.452 282.096 237.643 277.846 241.681C275.202 244.193 274.443 247.055 273.709 249.822C272.92 252.794 272.105 255.867 268.944 258.452C265.488 261.278 261.701 261.543 258.36 261.776C255.137 262.001 252.353 262.196 250.578 264.57C248.332 267.575 248.847 272.762 252.109 279.985L251.933 280.064Z" fill="white"/>
</g>
<mask id="mask17_9958_13848" style="mask-type:luminance" maskUnits="userSpaceOnUse" x="245" y="235" width="53" height="44">
<path d="M252.514 278.084C250.904 277.243 247.976 275.424 246.323 272.245C243.363 266.552 246.27 259.915 250.171 256.751C255.04 252.802 258.964 256.286 263.56 252.566C268.78 248.342 265.394 242.492 270.821 238.112C274.505 235.139 279.316 235.21 283.569 235.272C288.669 235.348 296.554 236.676 297.125 238.967C297.801 241.684 287.037 241.1 283.345 248.907C280.55 254.818 284.722 259.381 281.098 265.496C280.607 266.324 277.873 270.938 272.49 271.791C265.451 272.906 260.444 266.552 256.142 268.412C254.396 269.167 252.53 271.377 252.514 278.084Z" fill="white"/>
</mask>
<g mask="url(#mask17_9958_13848)">
<path opacity="0.74" d="M270.947 256.784C270.866 256.758 270.788 256.725 270.712 256.686C269.392 256.001 269.416 253.583 269.44 251.244C269.477 247.582 270.511 244.702 271.124 243.311C273.085 238.865 276.248 235.958 278.557 234.303L278.669 234.459C276.38 236.1 273.243 238.982 271.301 243.388C270.693 244.766 269.669 247.618 269.632 251.246C269.609 253.527 269.586 255.885 270.801 256.516C272.719 257.51 276.676 253.709 278.165 252.277L278.28 252.167C279.278 251.209 279.942 250.337 280.528 249.568C281.35 248.488 282.061 247.555 283.391 246.76C285.398 245.562 287.947 245.219 290.965 245.743L290.932 245.932C287.96 245.417 285.456 245.751 283.49 246.925C282.191 247.701 281.491 248.62 280.681 249.684C280.091 250.459 279.423 251.337 278.413 252.306L278.299 252.416C276.839 253.82 273.05 257.463 270.947 256.784Z" fill="white"/>
</g>
<mask id="mask18_9958_13848" style="mask-type:luminance" maskUnits="userSpaceOnUse" x="245" y="235" width="53" height="44">
<path d="M252.514 278.084C250.904 277.243 247.976 275.424 246.323 272.245C243.363 266.552 246.27 259.915 250.171 256.751C255.04 252.802 258.964 256.286 263.56 252.566C268.78 248.342 265.394 242.492 270.821 238.112C274.505 235.139 279.316 235.21 283.569 235.272C288.669 235.348 296.554 236.676 297.125 238.967C297.801 241.684 287.037 241.1 283.345 248.907C280.55 254.818 284.722 259.381 281.098 265.496C280.607 266.324 277.873 270.938 272.49 271.791C265.451 272.906 260.444 266.552 256.142 268.412C254.396 269.167 252.53 271.377 252.514 278.084Z" fill="white"/>
</mask>
<g mask="url(#mask18_9958_13848)">
<path opacity="0.74" d="M267.594 266.924C265.514 266.253 263.078 264.469 260.311 261.585L260.227 261.498L260.331 261.436C262.086 260.402 263.449 259.077 264.383 257.496C265.479 255.643 265.653 253.964 265.896 251.64L265.915 251.45C266.636 244.552 266.997 241.09 267.596 239.629C268.761 236.783 271.168 234.365 274.748 232.441L274.839 232.611C271.299 234.513 268.922 236.898 267.774 239.702C267.186 241.137 266.825 244.59 266.107 251.47L266.087 251.66C265.843 254.008 265.666 255.705 264.549 257.594C263.617 259.171 262.266 260.498 260.534 261.539C264.686 265.843 268.06 267.634 270.561 266.861C271.955 266.431 272.718 265.336 273.602 264.067C274.488 262.796 275.493 261.355 277.365 260.224C279.788 258.761 282.845 258.322 286.452 258.918L286.42 259.108C282.861 258.519 279.848 258.95 277.465 260.389C275.627 261.498 274.635 262.921 273.761 264.177C272.856 265.475 272.075 266.595 270.618 267.045C269.715 267.324 268.705 267.283 267.594 266.924Z" fill="white"/>
</g>
<mask id="mask19_9958_13848" style="mask-type:luminance" maskUnits="userSpaceOnUse" x="245" y="235" width="53" height="44">
<path d="M252.514 278.084C250.904 277.243 247.976 275.424 246.323 272.245C243.363 266.552 246.27 259.915 250.171 256.751C255.04 252.802 258.964 256.286 263.56 252.566C268.78 248.342 265.394 242.492 270.821 238.112C274.505 235.139 279.316 235.21 283.569 235.272C288.669 235.348 296.554 236.676 297.125 238.967C297.801 241.684 287.037 241.1 283.345 248.907C280.55 254.818 284.722 259.381 281.098 265.496C280.607 266.324 277.873 270.938 272.49 271.791C265.451 272.906 260.444 266.552 256.142 268.412C254.396 269.167 252.53 271.377 252.514 278.084Z" fill="white"/>
</mask>
<g mask="url(#mask19_9958_13848)">
<path d="M264.565 273.832C259.648 272.244 256.949 268.67 256.92 268.632C256.769 268.428 256.618 268.211 256.462 267.987C255.644 266.812 254.715 265.48 253.058 265.044C252.158 264.807 251.17 264.87 250.12 265.231L249.994 265.274L249.992 265.141C249.982 263.898 250.273 262.831 250.859 261.968C251.605 260.869 252.715 260.426 253.693 260.036C254.693 259.637 255.557 259.293 255.863 258.369C256.586 256.189 255.454 254.266 255.22 253.903L255.382 253.799C255.625 254.175 256.797 256.166 256.046 258.429C255.711 259.438 254.766 259.815 253.765 260.215C252.812 260.595 251.732 261.025 251.018 262.076C250.476 262.875 250.196 263.861 250.185 265.007C251.224 264.671 252.206 264.621 253.107 264.858C254.835 265.311 255.783 266.675 256.62 267.878C256.775 268.1 256.925 268.315 257.075 268.517C257.105 268.558 260.131 272.563 265.618 273.933C270.926 275.259 276.223 271.355 278.254 269.615L278.38 269.761C276.326 271.52 270.966 275.467 265.571 274.12C265.226 274.033 264.89 273.937 264.565 273.832Z" fill="white"/>
</g>
<path d="M86.4851 272.023L149.067 256.396L152.197 271.574L94.905 297.97L49.5411 286.784L22.1758 259.962L86.4851 272.023Z" fill="url(#paint13_linear_9958_13848)"/>
<path d="M86.4851 272.023L149.067 256.396L152.197 271.574L94.905 297.97L49.5411 286.784L22.1758 259.962L86.4851 272.023Z" fill="url(#paint14_linear_9958_13848)"/>
<path d="M84.5176 293.032C96.9559 286.375 106.142 279.595 112.378 274.47C124.646 264.387 130.274 256.78 142.695 253.775C144.915 253.237 157.561 250.177 161.642 255.783C166.161 261.99 157.376 274.97 156.309 276.547C140.441 299.994 100.031 298.899 87.3564 298.139C86.4102 296.436 85.464 294.734 84.5176 293.032Z" fill="url(#paint15_linear_9958_13848)"/>
<path opacity="0.3" d="M161.642 255.784C160.45 254.146 158.517 253.262 156.336 252.824C157.062 255.334 157.128 257.688 156.221 259.746C153.741 265.368 146.399 263.637 141.241 270.235C136.176 276.716 139.682 282.962 135.205 285.635C130.073 288.698 123.711 281.541 118.213 284.965C114.476 287.293 115.638 291.71 111.283 294.116C108.272 295.778 105.322 294.992 101.893 294.562C97.962 294.069 92.5774 293.964 85.8184 295.373C86.3309 296.295 86.8436 297.218 87.3564 298.14C100.031 298.9 140.441 299.994 156.309 276.548C157.376 274.971 166.161 261.991 161.642 255.784Z" fill="url(#paint16_linear_9958_13848)"/>
<path d="M93.9212 296.536C93.9212 296.536 96.2003 294.905 99.5076 296.017C102.815 297.129 108.066 298.026 108.058 299.64C108.05 301.254 102.796 302.264 99.1651 301.601C95.6918 300.966 92.9602 297.953 93.9212 296.536Z" fill="url(#paint17_linear_9958_13848)"/>
<path d="M90.5807 293.779L96.6674 295.734C96.6674 295.734 97.6561 297.378 96.3217 298.421C94.9875 299.463 90.3506 297.258 90.3506 297.258L90.5807 293.779Z" fill="url(#paint18_linear_9958_13848)"/>
<path d="M5.97949 265.771C4.18229 276.217 26.7651 287.516 31.9348 290.103C42.471 295.375 62.2959 302.817 91.7196 299.974C92.111 297.63 92.5022 295.287 92.8934 292.943C89.0064 291.614 83.2461 289.454 76.5622 286.171C65.1552 280.57 60.8237 276.57 44.9947 267.016C27.479 256.445 22.3769 255.089 17.1581 256.397C12.6957 257.516 6.8145 260.917 5.97949 265.771Z" fill="url(#paint19_linear_9958_13848)"/>
<path d="M29.5104 245.907C25.693 232.125 31.9943 213.529 45.2723 204.563C56.1102 197.244 68.8091 197.719 72.7718 197.867C77.1095 198.029 76.6614 198.592 90.3156 201.113C109.272 204.615 111.022 203.766 116.536 206.404C126.905 211.365 131.936 220.377 132.878 222.131C137.696 231.106 141.618 247.791 132.466 255.95C127.263 260.589 119.97 260.57 115.865 260.135C115.586 258.294 115.307 256.452 115.027 254.611C115.862 253.965 120.79 250.022 121.399 243.061C122.099 235.062 116.497 229.898 115.865 229.336C113.879 233.164 111.433 238.978 110.332 246.409C108.91 256.006 110.383 263.897 111.629 268.537C106.616 271.284 98.3262 275.012 87.5277 276.204C79.3921 277.103 69.3188 275.382 62.8787 270.358C53.7914 263.269 53.0232 247.64 61.9982 228.424C58.7131 230.621 53.9539 234.595 51.9796 240.885C51.6812 241.837 51.1757 243.703 50.9734 250.929C50.6105 263.91 33.4664 260.189 29.5104 245.907Z" fill="url(#paint20_linear_9958_13848)"/>
<path opacity="0.3" d="M91.0481 255.45C86.4752 256.009 85.2307 260.749 80.9873 260.471C71.7544 259.868 64.344 243.911 68.2437 235.196C70.7866 229.513 77.4155 228.522 76.9631 224.818C76.6014 221.854 72.0006 219.573 68.2437 219.461C62.3945 219.288 58.5322 224.373 57.1768 226.157C54.0094 230.327 53.3265 234.905 53.2549 237.85C55.5792 233.298 59.2811 230.242 61.9974 228.425C53.0224 247.641 53.7906 262.916 62.878 270.005C69.3179 275.029 79.3912 277.104 87.5269 276.205C96.2913 275.238 103.403 272.6 108.452 270.172C103.546 262.2 97.2976 254.685 91.0481 255.45Z" fill="url(#paint21_linear_9958_13848)"/>
<path d="M106.985 268.45L53.4766 267.652L67.7054 274.508L107.122 271.932L106.985 268.45Z" fill="url(#paint22_linear_9958_13848)"/>
<path d="M32.0977 236.723C36.2268 232.822 46.3563 235.279 50.1351 240.885C52.9169 245.011 50.6147 248.407 52.6502 253.606C55.144 259.975 64.5508 265.734 70.3318 267.651C69.4269 269.595 69.6931 270.099 68.7882 272.044C65.1108 271.585 38.5283 267.521 32.0256 251.765C31.687 250.944 27.6699 240.907 32.0977 236.723Z" fill="url(#paint23_linear_9958_13848)"/>
<path d="M92.4368 195.592C92.4368 195.592 88.1095 200.263 84.5177 200.749C80.9257 201.235 75.7347 200.283 74.8403 200.749C73.9458 201.215 79.3513 203.135 83.6387 204.309C87.9259 205.483 95.71 207.828 97.8621 207.315C100.014 206.801 95.5103 204.046 93.7268 203.316C91.9431 202.586 94.496 198.835 94.496 198.835L92.4368 195.592Z" fill="white"/>
<path d="M98.8568 198.267C100.422 197.837 101.851 196.083 101.833 194.266C101.818 192.703 100.718 191.636 100.06 190.997C98.1529 189.146 94.8381 187.987 92.4351 189.204C91.0111 189.925 90.361 193.199 90.217 193.766C90.0542 194.408 90.3053 194.865 90.3746 195.498C90.4706 196.376 90.611 197.763 90.8154 200.06C91.2176 199.738 91.7423 199.36 92.3854 199.007C92.6328 198.872 93.6095 198.349 94.6652 198.105C96.7815 197.617 97.3736 198.676 98.8568 198.267Z" fill="url(#paint24_linear_9958_13848)"/>
<path d="M89.9174 197.571C89.9174 197.571 89.5544 200.883 92.432 202.812C95.0083 204.539 99.6058 199.324 98.9382 196.953C98.7154 196.162 97.793 195.196 96.7579 194.779C96.1465 194.533 95.8153 194.611 94.8241 194.189C93.9099 193.801 93.7597 193.551 93.3806 193.567C92.9063 193.588 92.2384 194.018 91.4798 195.993C91.3768 195.16 90.9552 194.547 90.4122 194.428C90.3256 194.409 90.0689 194.394 89.8402 194.495C89.0132 194.858 88.9688 196.1 89.9174 197.571Z" fill="white"/>
<path d="M93.5229 193.154C93.5731 193.333 92.8714 193.496 92.3633 194.099C91.3765 195.269 91.4827 197.666 92.6398 198.752C93.3241 199.394 93.8712 199.105 95.1946 199.917C96.0142 200.42 96.5706 201.001 96.9008 201.393C96.2609 203.017 94.8773 204.062 93.5146 203.993C92.0469 203.918 91.1338 202.577 90.7521 202.016C90.4968 201.641 89.6767 200.441 89.8782 198.997C90.0881 197.493 91.1598 197.313 91.021 196.08C90.9509 195.458 90.6165 194.954 90.7078 193.924C90.7326 193.645 90.7806 193.417 90.8178 193.268C91.9675 193.085 93.4498 192.895 93.5229 193.154Z" fill="url(#paint25_linear_9958_13848)"/>
<path d="M95.6309 201.2C95.6309 201.2 94.8877 201.068 94.0117 200.313C93.969 200.276 93.91 200.251 93.8866 200.27C93.7986 200.34 94.0861 201.181 94.7444 201.445C95.212 201.633 95.7913 201.5 95.8108 201.367C95.819 201.312 95.728 201.25 95.6309 201.2Z" fill="url(#paint26_linear_9958_13848)"/>
<path d="M71.7506 240.809L67.9789 275.091C67.8487 276.274 69.5078 278.036 70.6984 277.98L126.029 274.589C126.938 274.546 127.695 273.878 127.849 272.983L134.794 239.873C135.001 238.668 132.832 237.423 131.607 237.458L73.6243 239.085C72.6561 239.112 71.8563 239.848 71.7506 240.809Z" fill="url(#paint27_linear_9958_13848)"/>
<path d="M73.0148 241.81L69.2433 276.091C69.1131 277.274 70.0724 278.293 71.2632 278.237L127.294 275.589C128.203 275.546 128.96 274.878 129.114 273.983L134.838 240.721C135.045 239.516 134.096 238.423 132.872 238.458L74.8887 240.085C73.9204 240.112 73.1206 240.848 73.0148 241.81Z" fill="url(#paint28_linear_9958_13848)"/>
<path opacity="0.3" d="M105.917 267.556C101.025 265.486 102.751 261.539 96.974 256.62C89.3526 250.131 81.5843 252.945 78.8646 247.916C78.0177 246.349 77.6133 243.912 79.0884 239.967L74.8896 240.085C73.9213 240.112 73.1217 240.848 73.0159 241.809L69.2443 276.091C69.1142 277.274 70.0737 278.293 71.2642 278.236L127.295 275.589C128.204 275.546 128.961 274.878 129.115 273.982L129.905 269.392C128.205 268.448 126.173 267.589 123.803 267.109C115.583 265.445 111.549 269.939 105.917 267.556Z" fill="url(#paint29_linear_9958_13848)"/>
<path d="M67.1094 270.852C69.4504 273.039 71.0141 272.844 71.5393 272.724C72.4201 272.521 72.5382 272.031 74.7721 270.286C76.7678 268.726 77.3982 268.551 77.3749 268.014C77.3306 266.995 75.0041 266.103 73.1096 266.009C70.4537 265.876 68.4472 267.3 67.6593 267.933L67.1094 270.852Z" fill="white"/>
<defs>
<linearGradient id="paint0_linear_9958_13848" x1="199.122" y1="27.2112" x2="-16.0502" y2="153.384" gradientUnits="userSpaceOnUse">
<stop offset="0.0036" stop-color="#E38DDD"/>
<stop offset="1" stop-color="#9571F6"/>
</linearGradient>
<linearGradient id="paint1_linear_9958_13848" x1="314.775" y1="115.792" x2="70.0247" y2="132.068" gradientUnits="userSpaceOnUse">
<stop stop-color="#FFC444"/>
<stop offset="0.9964" stop-color="#F36F56"/>
</linearGradient>
<linearGradient id="paint2_linear_9958_13848" x1="278.874" y1="54.9313" x2="66.7214" y2="133.399" gradientUnits="userSpaceOnUse">
<stop stop-color="#FF9085"/>
<stop offset="1" stop-color="#FB6FBB"/>
</linearGradient>
<linearGradient id="paint3_linear_9958_13848" x1="53.0421" y1="11.4814" x2="115.018" y2="117.391" gradientUnits="userSpaceOnUse">
<stop stop-color="#444B8C"/>
<stop offset="0.9964" stop-color="#26264F"/>
</linearGradient>
<linearGradient id="paint4_linear_9958_13848" x1="123.767" y1="87.5117" x2="254.208" y2="493.388" gradientUnits="userSpaceOnUse">
<stop stop-color="#444B8C"/>
<stop offset="0.9964" stop-color="#26264F"/>
</linearGradient>
<linearGradient id="paint5_linear_9958_13848" x1="41.5957" y1="175.863" x2="270.023" y2="175.863" gradientUnits="userSpaceOnUse">
<stop offset="0.494" stop-color="#EBEFF2"/>
<stop offset="1" stop-color="white"/>
</linearGradient>
<linearGradient id="paint6_linear_9958_13848" x1="297.393" y1="128.032" x2="271.833" y2="175.75" gradientUnits="userSpaceOnUse">
<stop stop-color="#444B8C"/>
<stop offset="0.9964" stop-color="#26264F"/>
</linearGradient>
<linearGradient id="paint7_linear_9958_13848" x1="115.179" y1="163.955" x2="203.745" y2="172.161" gradientUnits="userSpaceOnUse">
<stop stop-color="#FF9085"/>
<stop offset="1" stop-color="#FF0000"/>
</linearGradient>
<linearGradient id="paint8_linear_9958_13848" x1="115.135" y1="164.426" x2="182.363" y2="170.655" gradientUnits="userSpaceOnUse">
<stop stop-color="#FF9085"/>
<stop offset="1" stop-color="#FF0000"/>
</linearGradient>
<linearGradient id="paint9_linear_9958_13848" x1="270.83" y1="201.488" x2="268.909" y2="277.912" gradientUnits="userSpaceOnUse">
<stop offset="0.0036" stop-color="#E38DDD"/>
<stop offset="1" stop-color="#9571F6"/>
</linearGradient>
<linearGradient id="paint10_linear_9958_13848" x1="235.921" y1="267.9" x2="242.914" y2="262.552" gradientUnits="userSpaceOnUse">
<stop stop-color="#AA80F9"/>
<stop offset="0.9964" stop-color="#6165D7"/>
</linearGradient>
<linearGradient id="paint11_linear_9958_13848" x1="242.117" y1="202.217" x2="261.291" y2="292.058" gradientUnits="userSpaceOnUse">
<stop stop-color="#AA80F9"/>
<stop offset="0.9964" stop-color="#6165D7"/>
</linearGradient>
<linearGradient id="paint12_linear_9958_13848" x1="304.511" y1="244.228" x2="267.356" y2="261.267" gradientUnits="userSpaceOnUse">
<stop stop-color="#AA80F9"/>
<stop offset="0.9964" stop-color="#6165D7"/>
</linearGradient>
<linearGradient id="paint13_linear_9958_13848" x1="87.8987" y1="251.723" x2="86.5619" y2="278.17" gradientUnits="userSpaceOnUse">
<stop stop-color="#FF9085"/>
<stop offset="1" stop-color="#FB6FBB"/>
</linearGradient>
<linearGradient id="paint14_linear_9958_13848" x1="87.8987" y1="251.723" x2="86.5619" y2="278.17" gradientUnits="userSpaceOnUse">
<stop stop-color="#AA80F9"/>
<stop offset="0.9964" stop-color="#6165D7"/>
</linearGradient>
<linearGradient id="paint15_linear_9958_13848" x1="84.5176" y1="275.448" x2="162.926" y2="275.448" gradientUnits="userSpaceOnUse">
<stop stop-color="#AA80F9"/>
<stop offset="0.9964" stop-color="#6165D7"/>
</linearGradient>
<linearGradient id="paint16_linear_9958_13848" x1="84.5173" y1="275.632" x2="162.925" y2="275.632" gradientUnits="userSpaceOnUse">
<stop stop-color="#AA80F9"/>
<stop offset="0.9964" stop-color="#6165D7"/>
</linearGradient>
<linearGradient id="paint17_linear_9958_13848" x1="106.721" y1="305.905" x2="91.6617" y2="287.132" gradientUnits="userSpaceOnUse">
<stop stop-color="#311944"/>
<stop offset="1" stop-color="#6B3976"/>
</linearGradient>
<linearGradient id="paint18_linear_9958_13848" x1="97.4551" y1="301.452" x2="76.7071" y2="275.304" gradientUnits="userSpaceOnUse">
<stop stop-color="#FFC444"/>
<stop offset="0.9964" stop-color="#F36F56"/>
</linearGradient>
<linearGradient id="paint19_linear_9958_13848" x1="52.6917" y1="274.573" x2="35.4644" y2="310.469" gradientUnits="userSpaceOnUse">
<stop stop-color="#AA80F9"/>
<stop offset="0.9964" stop-color="#6165D7"/>
</linearGradient>
<linearGradient id="paint20_linear_9958_13848" x1="47.1722" y1="315.114" x2="83.4399" y2="237.002" gradientUnits="userSpaceOnUse">
<stop offset="0.0036" stop-color="#F36F56"/>
<stop offset="1" stop-color="#FFC444"/>
</linearGradient>
<linearGradient id="paint21_linear_9958_13848" x1="78.1938" y1="211.067" x2="81.0254" y2="256.952" gradientUnits="userSpaceOnUse">
<stop offset="0.0036" stop-color="#F36F56"/>
<stop offset="1" stop-color="#FFC444"/>
</linearGradient>
<linearGradient id="paint22_linear_9958_13848" x1="53.4766" y1="271.08" x2="107.122" y2="271.08" gradientUnits="userSpaceOnUse">
<stop stop-color="#AA80F9"/>
<stop offset="0.9964" stop-color="#6165D7"/>
</linearGradient>
<linearGradient id="paint23_linear_9958_13848" x1="24.8483" y1="308.84" x2="62.169" y2="228.46" gradientUnits="userSpaceOnUse">
<stop offset="0.0036" stop-color="#F36F56"/>
<stop offset="1" stop-color="#FFC444"/>
</linearGradient>
<linearGradient id="paint24_linear_9958_13848" x1="80.9407" y1="202.665" x2="99.2112" y2="191.618" gradientUnits="userSpaceOnUse">
<stop stop-color="#311944"/>
<stop offset="1" stop-color="#6B3976"/>
</linearGradient>
<linearGradient id="paint25_linear_9958_13848" x1="82.2612" y1="204.871" x2="100.552" y2="193.811" gradientUnits="userSpaceOnUse">
<stop stop-color="#311944"/>
<stop offset="1" stop-color="#6B3976"/>
</linearGradient>
<linearGradient id="paint26_linear_9958_13848" x1="93.8711" y1="200.901" x2="95.8113" y2="200.901" gradientUnits="userSpaceOnUse">
<stop offset="0.0036" stop-color="#F36F56"/>
<stop offset="1" stop-color="#FFC444"/>
</linearGradient>
<linearGradient id="paint27_linear_9958_13848" x1="67.9716" y1="257.719" x2="134.808" y2="257.719" gradientUnits="userSpaceOnUse">
<stop stop-color="#444B8C"/>
<stop offset="0.9964" stop-color="#26264F"/>
</linearGradient>
<linearGradient id="paint28_linear_9958_13848" x1="69.2314" y1="258.348" x2="134.867" y2="258.348" gradientUnits="userSpaceOnUse">
<stop stop-color="#444B8C"/>
<stop offset="0.9964" stop-color="#26264F"/>
</linearGradient>
<linearGradient id="paint29_linear_9958_13848" x1="69.2323" y1="259.103" x2="129.905" y2="259.103" gradientUnits="userSpaceOnUse">
<stop stop-color="#444B8C"/>
<stop offset="0.9964" stop-color="#26264F"/>
</linearGradient>
</defs>
</svg>
