<svg width="115" height="50" viewBox="0 0 115 50" fill="none" xmlns="http://www.w3.org/2000/svg">
<g clip-path="url(#clip0_1863_20887)">
<path d="M15.6504 9.29583C17.2751 9.06175 18.8371 10.2758 19.23 12.097C19.6621 14.1022 20.0053 16.1302 20.51 18.1151C21.494 21.993 22.4845 25.8795 24.7435 29.2495C25.3622 30.1725 26.1 30.9934 27.2707 30.9052C28.4414 30.817 28.8197 29.7496 29.2419 28.8133C31.1398 24.6085 32.3439 20.1306 34.0143 15.8391C35.5934 11.7817 37.0812 7.67366 39.7878 4.2132C41.6311 1.86227 43.8273 0.0856111 46.9554 0.0294322C48.7269 -0.135983 50.2571 0.389914 51.7098 1.47214C54.1294 3.27689 55.6384 5.77841 56.955 8.41257C59.3869 13.2767 60.926 18.5037 62.5606 23.6831C64.0207 28.3054 65.3479 32.9729 66.8185 37.5913C67.3289 39.1932 67.8849 40.8153 68.8909 42.1948C69.9189 43.5993 71.0455 43.5618 71.979 42.0661C72.601 41.0705 73.0592 39.9851 73.4513 38.867C74.4997 35.8786 75.204 32.7739 75.9231 29.7091C76.7505 26.1737 77.5266 22.6274 78.5049 19.1334C79.6267 15.1361 80.7224 11.1053 83.1518 7.66352C85.2119 4.7391 88.2763 4.03374 91.3701 5.74329C92.6803 6.46355 93.7535 7.52069 94.468 8.7949C95.6844 10.9102 95.4512 12.7415 93.7343 13.9282C92.1267 15.0378 90.3429 14.5525 88.9799 12.6276C88.1989 11.5258 87.7619 11.5531 87.2394 12.7649C87.0134 13.2826 86.8244 13.8144 86.6736 14.3566C84.9502 20.6908 83.2773 27.0398 81.5091 33.3599C80.4599 37.1052 79.3234 40.8364 77.4492 44.2625C77.0126 45.0671 76.5185 45.842 75.9704 46.5815C72.4975 51.2248 67.7691 51.1382 64.4389 46.3365C61.491 42.0864 59.9926 37.1551 58.4061 32.2816C56.311 25.8507 54.5819 19.2894 52.0351 13.02C51.0951 10.7081 50.2008 8.32206 48.1301 6.73423C46.2755 6.44631 45.2474 7.68927 44.3531 9.0126C42.5107 11.7349 41.4061 14.8341 40.2452 17.899C38.7459 21.8557 37.506 25.9162 35.7695 29.7793C34.8638 31.7955 33.8391 33.7586 32.3301 35.3535C28.9183 38.9622 23.9617 38.4105 20.6722 34.027C16.04 27.8552 14.1707 20.5511 12.7783 13.0941C12.4049 11.092 13.7346 9.56814 15.6504 9.29583Z" fill="url(#paint0_linear_1863_20887)"/>
</g>
<path d="M6.8924 32.139L0 15.0039H4.07116L8.71371 27.4626L7.4995 27.4983L12.0349 15.0039H14.3205L18.8559 27.4983L17.6417 27.4626L22.2842 15.0039H26.3554L19.463 32.139H17.1774L12.5349 20.2872H13.8205L9.17796 32.139H6.8924Z" fill="#F8F9FF"/>
<path d="M36.3614 32.4962C34.6472 32.4962 33.0997 32.1154 31.7188 31.3538C30.3618 30.5685 29.2785 29.4975 28.469 28.141C27.6834 26.7845 27.2905 25.2614 27.2905 23.5716C27.2905 21.8819 27.6834 20.3707 28.469 19.038C29.2547 17.6814 30.3141 16.6105 31.6474 15.8251C33.0044 15.0398 34.5043 14.6471 36.1471 14.6471C37.7422 14.6471 39.1469 15.016 40.3611 15.7537C41.5991 16.4915 42.5633 17.503 43.2538 18.7881C43.968 20.0732 44.3251 21.5368 44.3251 23.179C44.3251 23.4645 44.3013 23.762 44.2537 24.0714C44.2299 24.357 44.1823 24.6783 44.1108 25.0353H30.0403V21.8224H42.0753L40.6111 23.1076C40.5635 22.0604 40.3611 21.1799 40.004 20.4659C39.6468 19.7519 39.135 19.2046 38.4684 18.8238C37.8255 18.443 37.028 18.2526 36.0757 18.2526C35.0757 18.2526 34.2067 18.4668 33.4687 18.8952C32.7306 19.3236 32.1593 19.9304 31.7545 20.7158C31.3498 21.4773 31.1474 22.3936 31.1474 23.4645C31.1474 24.5355 31.3617 25.4755 31.7902 26.2847C32.2188 27.0939 32.8259 27.7245 33.6115 28.1767C34.3972 28.6051 35.3019 28.8193 36.3256 28.8193C37.2065 28.8193 38.016 28.6646 38.754 28.3552C39.5159 28.0458 40.1587 27.5936 40.6825 26.9987L43.1823 29.5332C42.3491 30.509 41.3372 31.2467 40.1468 31.7465C38.9564 32.2463 37.6946 32.4962 36.3614 32.4962Z" fill="#F8F9FF"/>
<path d="M55.4379 32.4962C53.7238 32.4962 52.1762 32.1154 50.7954 31.3538C49.4383 30.5685 48.3551 29.4975 47.5456 28.141C46.7599 26.7845 46.3671 25.2614 46.3671 23.5716C46.3671 21.8819 46.7599 20.3707 47.5456 19.038C48.3313 17.6814 49.3907 16.6105 50.724 15.8251C52.081 15.0398 53.5809 14.6471 55.2237 14.6471C56.8188 14.6471 58.2235 15.016 59.4377 15.7537C60.6757 16.4915 61.6399 17.503 62.3303 18.7881C63.0446 20.0732 63.4017 21.5368 63.4017 23.179C63.4017 23.4645 63.3779 23.762 63.3303 24.0714C63.3064 24.357 63.2588 24.6783 63.1874 25.0353H49.1169V21.8224H61.1518L59.6876 23.1076C59.64 22.0604 59.4377 21.1799 59.0805 20.4659C58.7234 19.7519 58.2116 19.2046 57.5449 18.8238C56.9021 18.443 56.1046 18.2526 55.1522 18.2526C54.1523 18.2526 53.2833 18.4668 52.5453 18.8952C51.8072 19.3236 51.2358 19.9304 50.8311 20.7158C50.4264 21.4773 50.224 22.3936 50.224 23.4645C50.224 24.5355 50.4383 25.4755 50.8668 26.2847C51.2953 27.0939 51.9024 27.7245 52.6881 28.1767C53.4738 28.6051 54.3785 28.8193 55.4022 28.8193C56.2831 28.8193 57.0926 28.6646 57.8306 28.3552C58.5925 28.0458 59.2353 27.5936 59.7591 26.9987L62.2589 29.5332C61.4256 30.509 60.4138 31.2467 59.2234 31.7465C58.033 32.2463 56.7712 32.4962 55.4379 32.4962Z" fill="#F8F9FF"/>
<path d="M72.1575 32.4962C71.2052 32.4962 70.2886 32.3772 69.4077 32.1392C68.5268 31.8774 67.7173 31.5204 66.9793 31.0683C66.2412 30.5923 65.5984 30.0211 65.0508 29.3547L67.5507 26.8559C68.1459 27.546 68.8244 28.0696 69.5863 28.4266C70.3719 28.7598 71.2528 28.9264 72.2289 28.9264C73.1098 28.9264 73.7765 28.7955 74.2288 28.5337C74.6812 28.2719 74.9073 27.8911 74.9073 27.3913C74.9073 26.8678 74.6931 26.4632 74.2645 26.1776C73.836 25.892 73.2765 25.654 72.5861 25.4636C71.9194 25.2495 71.2052 25.0353 70.4433 24.8211C69.7053 24.6069 68.9911 24.3213 68.3006 23.9643C67.634 23.5835 67.0864 23.0719 66.6579 22.4293C66.2293 21.7867 66.0151 20.9538 66.0151 19.9304C66.0151 18.8357 66.2651 17.8956 66.765 17.1103C67.2888 16.3249 68.0149 15.718 68.9434 15.2897C69.8958 14.8613 71.0266 14.6471 72.3361 14.6471C73.7169 14.6471 74.9311 14.897 75.9787 15.3968C77.05 15.8727 77.9429 16.5986 78.6571 17.5743L76.1573 20.0732C75.6573 19.4545 75.0859 18.9904 74.4431 18.681C73.8003 18.3716 73.0622 18.2169 72.2289 18.2169C71.4433 18.2169 70.8362 18.3359 70.4076 18.5739C69.9791 18.8119 69.7648 19.157 69.7648 19.6091C69.7648 20.0851 69.9791 20.454 70.4076 20.7158C70.8362 20.9776 71.3838 21.2037 72.0504 21.3941C72.7408 21.5844 73.455 21.7986 74.1931 22.0366C74.9549 22.2508 75.6692 22.5602 76.3358 22.9648C77.0262 23.3455 77.5857 23.8691 78.0143 24.5355C78.4428 25.1781 78.6571 26.0229 78.6571 27.0701C78.6571 28.736 78.0738 30.0568 76.9072 31.0326C75.7406 32.0083 74.1574 32.4962 72.1575 32.4962Z" fill="#F8F9FF"/>
<path d="M94.1159 32.1392V22.2508C94.1159 21.1085 93.7469 20.1684 93.0088 19.4307C92.2946 18.6929 91.3661 18.324 90.2233 18.324C89.4614 18.324 88.7829 18.4906 88.1877 18.8238C87.5925 19.157 87.1282 19.621 86.7949 20.216C86.4616 20.811 86.295 21.4892 86.295 22.2508L84.7594 21.3941C84.7594 20.0851 85.0451 18.9309 85.6164 17.9313C86.1878 16.908 86.9735 16.1107 87.9734 15.5396C88.9972 14.9446 90.14 14.6471 91.4018 14.6471C92.6874 14.6471 93.8302 14.9327 94.8301 15.5039C95.83 16.075 96.6157 16.8723 97.1871 17.8956C97.7585 18.8952 98.0442 20.0613 98.0442 21.3941V32.1392H94.1159ZM82.3667 32.1392V6.43652H86.295V32.1392H82.3667Z" fill="#F8F9FF"/>
<path d="M101.565 32.1392V15.0041H105.493V32.1392H101.565ZM105.493 22.6078L104.136 21.9295C104.136 19.7638 104.613 18.0146 105.565 16.6819C106.541 15.3254 108.005 14.6471 109.957 14.6471C110.815 14.6471 111.588 14.8018 112.279 15.1112C112.969 15.4206 113.612 15.9203 114.207 16.6105L111.636 19.2522C111.326 18.919 110.981 18.681 110.6 18.5382C110.219 18.3954 109.779 18.324 109.279 18.324C108.184 18.324 107.279 18.6691 106.565 19.3593C105.851 20.0494 105.493 21.1323 105.493 22.6078Z" fill="#F8F9FF"/>
<mask id="mask0_1863_20887" style="mask-type:alpha" maskUnits="userSpaceOnUse" x="64" y="14" width="15" height="19">
<path d="M72.1292 32.6436C71.1622 32.6436 70.2316 32.5228 69.3372 32.2812C68.4428 32.0154 67.6209 31.6529 66.8716 31.1938C66.1222 30.7105 65.4695 30.1306 64.9136 29.454L67.4517 26.9169C68.056 27.6176 68.745 28.1492 69.5185 28.5117C70.3162 28.8499 71.2106 29.0191 72.2017 29.0191C73.0961 29.0191 73.7729 28.8862 74.2322 28.6204C74.6915 28.3546 74.9211 27.968 74.9211 27.4605C74.9211 26.9289 74.7036 26.5182 74.2684 26.2282C73.8333 25.9382 73.2653 25.6966 72.5643 25.5033C71.8874 25.2858 71.1622 25.0684 70.3887 24.8509C69.6394 24.6334 68.9142 24.3435 68.2132 23.981C67.5363 23.5944 66.9803 23.0749 66.5452 22.4225C66.1101 21.77 65.8926 20.9243 65.8926 19.8853C65.8926 18.7738 66.1464 17.8193 66.654 17.0219C67.1858 16.2245 67.9231 15.6084 68.8658 15.1734C69.8327 14.7385 70.9809 14.521 72.3105 14.521C73.7125 14.521 74.9453 14.7747 76.0089 15.2821C77.0967 15.7654 78.0031 16.5024 78.7283 17.4931L76.1902 20.0303C75.6826 19.402 75.1024 18.9308 74.4497 18.6167C73.7971 18.3026 73.0477 18.1455 72.2017 18.1455C71.404 18.1455 70.7876 18.2663 70.3525 18.508C69.9173 18.7496 69.6998 19.1 69.6998 19.5591C69.6998 20.0424 69.9173 20.4169 70.3525 20.6827C70.7876 20.9485 71.3435 21.178 72.0204 21.3713C72.7214 21.5647 73.4466 21.7821 74.1959 22.0238C74.9695 22.2412 75.6946 22.5554 76.3715 22.9661C77.0725 23.3528 77.6405 23.8843 78.0757 24.5609C78.5108 25.2133 78.7283 26.0711 78.7283 27.1343C78.7283 28.8258 78.1361 30.1669 76.9516 31.1576C75.7672 32.1483 74.1597 32.6436 72.1292 32.6436Z" fill="black"/>
</mask>
<g mask="url(#mask0_1863_20887)">
<path d="M14.7564 9.0882C16.406 8.85053 17.992 10.0832 18.3909 11.9323C18.8296 13.9683 19.1781 16.0273 19.6905 18.0427C20.6895 21.98 21.6952 25.926 23.9888 29.3476C24.6171 30.2848 25.3662 31.1183 26.5548 31.0287C27.7434 30.9392 28.1275 29.8555 28.5563 28.9048C30.4832 24.6355 31.7058 20.089 33.4018 15.7318C35.0051 11.6122 36.5157 7.44117 39.2637 3.92768C41.1352 1.54072 43.3651 -0.263167 46.5411 -0.320207C48.3398 -0.488158 49.8934 0.045799 51.3684 1.14461C53.8251 2.97701 55.3573 5.51687 56.694 8.19141C59.1632 13.1301 60.7259 18.4372 62.3855 23.6959C63.868 28.3891 65.2155 33.1281 66.7087 37.8173C67.2269 39.4437 67.7914 41.0907 68.8128 42.4914C69.8566 43.9174 71.0005 43.8793 71.9482 42.3607C72.5798 41.3498 73.045 40.2478 73.4431 39.1126C74.5076 36.0783 75.2227 32.9261 75.9528 29.8143C76.7929 26.2247 77.5809 22.6241 78.5742 19.0765C79.7132 15.018 80.8256 10.9254 83.2923 7.43087C85.3839 4.46163 88.4954 3.74547 91.6366 5.48122C92.9669 6.21251 94.0565 7.28586 94.7819 8.57959C96.0169 10.7273 95.7802 12.5866 94.037 13.7916C92.4047 14.9181 90.5936 14.4254 89.2097 12.471C88.4167 11.3524 87.9731 11.3801 87.4425 12.6104C87.2131 13.1361 87.0212 13.676 86.868 14.2265C85.1182 20.6578 83.4197 27.1041 81.6244 33.5211C80.5591 37.3237 79.4052 41.1121 77.5023 44.5908C77.059 45.4077 76.5573 46.1944 76.0008 46.9452C72.4747 51.6597 67.6739 51.5718 64.2926 46.6965C61.2995 42.3813 59.7782 37.3744 58.1674 32.4262C56.0401 25.8967 54.2845 19.235 51.6987 12.8695C50.7443 10.5221 49.8363 8.09951 47.7339 6.48734C45.8508 6.19501 44.807 7.45702 43.899 8.80062C42.0284 11.5647 40.9068 14.7114 39.7281 17.8232C38.2059 21.8406 36.9469 25.9633 35.1839 29.8856C34.2643 31.9327 33.2238 33.9259 31.6917 35.5452C28.2276 39.2092 23.1951 38.6491 19.8552 34.1984C15.152 27.9319 13.254 20.516 11.8403 12.9447C11.4612 10.9119 12.8112 9.36468 14.7564 9.0882Z" fill="url(#paint1_linear_1863_20887)"/>
</g>
<path d="M97.0055 14.4838C95.2358 14.4432 93.8907 15.7777 93.8763 17.5886C93.8627 19.3217 95.1489 20.6492 96.8793 20.6891C98.5282 20.7262 100.007 19.3006 100.037 17.6446C100.067 15.9759 98.6725 14.5223 97.0055 14.4838Z" fill="#BAEF23"/>
<mask id="mask1_1863_20887" style="mask-type:alpha" maskUnits="userSpaceOnUse" x="31" y="14" width="13" height="8">
<path d="M41.7976 16.8759C38.2183 13.4536 33.6866 14.6389 31.8682 15.6593C31.515 17.9225 30.9577 22.1585 31.5542 20.9968C32.2999 19.5447 33.7128 18.2103 36.1853 18.2103C38.1633 18.2103 39.4166 19.4924 39.796 20.1334L40.0315 20.4474C42.1115 20.6828 45.3768 20.2982 41.7976 16.8759Z" fill="#D9D9D9" stroke="black" stroke-width="0.102406"/>
</mask>
<g mask="url(#mask1_1863_20887)">
<path d="M15.6508 9.29632C17.2756 9.06224 18.8376 10.2763 19.2305 12.0975C19.6626 14.1027 20.0058 16.1306 20.5105 18.1156C21.4944 21.9935 22.485 25.88 24.744 29.25C25.3627 30.173 26.1005 30.9939 27.2712 30.9057C28.4419 30.8175 28.8201 29.7501 29.2424 28.8138C31.1403 24.609 32.3444 20.131 34.0148 15.8396C35.5939 11.7822 37.0817 7.67415 39.7883 4.21369C41.6315 1.86276 43.8278 0.0860994 46.9558 0.0299205C48.7273 -0.135495 50.2575 0.390402 51.7103 1.47263C54.1299 3.27737 55.6389 5.7789 56.9555 8.41306C59.3874 13.2772 60.9265 18.5042 62.5611 23.6836C64.0211 28.3059 65.3484 32.9734 66.819 37.5918C67.3294 39.1936 67.8854 40.8158 68.8914 42.1953C69.9194 43.5998 71.046 43.5623 71.9795 42.0666C72.6015 41.071 73.0597 39.9856 73.4518 38.8675C74.5002 35.8791 75.2045 32.7744 75.9236 29.7095C76.751 26.1742 77.5271 22.6279 78.5054 19.1339C79.6272 15.1366 80.7228 11.1057 83.1522 7.66401C85.2123 4.73959 88.2768 4.03423 91.3706 5.74378C92.6808 6.46403 93.754 7.52118 94.4685 8.79539C95.6848 10.9107 95.4517 12.742 93.7348 13.9287C92.1272 15.0383 90.3434 14.5529 88.9804 12.628C88.1994 11.5263 87.7624 11.5536 87.2398 12.7654C87.0139 13.2831 86.8249 13.8149 86.6741 14.3571C84.9507 20.6913 83.2778 27.0403 81.5095 33.3604C80.4603 37.1057 79.3239 40.8369 77.4497 44.263C77.0131 45.0676 76.5189 45.8424 75.9708 46.5819C72.4979 51.2253 67.7696 51.1387 64.4394 46.3369C61.4915 42.0869 59.9931 37.1556 58.4066 32.2821C56.3115 25.8512 54.5824 19.2899 52.0356 13.0205C51.0956 10.7086 50.2013 8.32255 48.1306 6.73472C46.2759 6.4468 45.2479 7.68976 44.3536 9.01308C42.5112 11.7354 41.4065 14.8346 40.2456 17.8995C38.7464 21.8562 37.5065 25.9167 35.77 29.7798C34.8643 31.796 33.8395 33.7591 32.3305 35.354C28.9188 38.9627 23.9622 38.411 20.6727 34.0275C16.0405 27.8556 14.1712 20.5516 12.7788 13.0946C12.4054 11.0925 13.735 9.56863 15.6508 9.29632Z" fill="url(#paint2_linear_1863_20887)"/>
</g>
<defs>
<linearGradient id="paint0_linear_1863_20887" x1="12.7153" y1="25.0007" x2="95.231" y2="25.0007" gradientUnits="userSpaceOnUse">
<stop stop-color="#0CC990"/>
<stop offset="0.359375" stop-color="#6A70FF"/>
<stop offset="0.661458" stop-color="#41C7D9"/>
<stop offset="1" stop-color="#AEE219"/>
</linearGradient>
<linearGradient id="paint1_linear_1863_20887" x1="11.7764" y1="25.0338" x2="95.5566" y2="25.0338" gradientUnits="userSpaceOnUse">
<stop stop-color="#0CC990"/>
<stop offset="0.359375" stop-color="#6A70FF"/>
<stop offset="0.661458" stop-color="#41C7D9"/>
<stop offset="1" stop-color="#AEE219"/>
</linearGradient>
<linearGradient id="paint2_linear_1863_20887" x1="12.7158" y1="25.0012" x2="95.2315" y2="25.0012" gradientUnits="userSpaceOnUse">
<stop stop-color="#0CC990"/>
<stop offset="0.359375" stop-color="#6A70FF"/>
<stop offset="0.661458" stop-color="#41C7D9"/>
<stop offset="1" stop-color="#AEE219"/>
</linearGradient>
<clipPath id="clip0_1863_20887">
<rect width="88.3046" height="50" fill="white" transform="translate(12.7158)"/>
</clipPath>
</defs>
</svg>
